<mxfile host="Electron" agent="Mozilla/5.0 (Windows NT 10.0; Win64; x64) AppleWebKit/537.36 (KHTML, like Gecko) draw.io/24.7.5 Chrome/126.0.6478.183 Electron/31.3.0 Safari/537.36" version="24.7.5">
  <diagram name="第 1 页" id="3IVYmcFpDdMu_pAOPpOx">
    <mxGraphModel dx="1221" dy="823" grid="1" gridSize="10" guides="1" tooltips="1" connect="1" arrows="1" fold="1" page="1" pageScale="1" pageWidth="827" pageHeight="1169" math="0" shadow="0">
      <root>
        <mxCell id="0" />
        <mxCell id="1" parent="0" />
        <mxCell id="sKxLPVqMPOY-xUTTgWdU-1" value="" style="html=1;shadow=0;dashed=0;align=center;verticalAlign=middle;shape=mxgraph.arrows2.sharpArrow2;dy1=0.67;dx1=18;dx2=18;dy3=0.15;dx3=27;notch=0;" vertex="1" parent="1">
          <mxGeometry x="50" y="390" width="710" height="100" as="geometry" />
        </mxCell>
        <mxCell id="sKxLPVqMPOY-xUTTgWdU-2" value="&lt;h4&gt;&lt;font style=&quot;font-size: 18px;&quot;&gt;底部导航栏&lt;/font&gt;&lt;/h4&gt;" style="text;html=1;align=center;verticalAlign=middle;whiteSpace=wrap;rounded=0;" vertex="1" parent="1">
          <mxGeometry x="355" y="425" width="117.5" height="30" as="geometry" />
        </mxCell>
        <mxCell id="sKxLPVqMPOY-xUTTgWdU-3" value="访问“关于宠悦”界面" style="rounded=1;whiteSpace=wrap;html=1;" vertex="1" parent="1">
          <mxGeometry x="60" y="300" width="110" height="40" as="geometry" />
        </mxCell>
        <mxCell id="sKxLPVqMPOY-xUTTgWdU-4" value="" style="endArrow=classic;html=1;rounded=0;entryX=0.5;entryY=1;entryDx=0;entryDy=0;exitX=0.091;exitY=0.36;exitDx=0;exitDy=0;exitPerimeter=0;" edge="1" parent="1" source="sKxLPVqMPOY-xUTTgWdU-1" target="sKxLPVqMPOY-xUTTgWdU-3">
          <mxGeometry width="50" height="50" relative="1" as="geometry">
            <mxPoint x="300" y="440" as="sourcePoint" />
            <mxPoint x="350" y="390" as="targetPoint" />
          </mxGeometry>
        </mxCell>
        <mxCell id="sKxLPVqMPOY-xUTTgWdU-5" value="在底部功能栏点击“关于宠悦”界面" style="text;html=1;align=center;verticalAlign=middle;whiteSpace=wrap;rounded=0;" vertex="1" parent="1">
          <mxGeometry x="10" y="360" width="100" height="30" as="geometry" />
        </mxCell>
        <mxCell id="sKxLPVqMPOY-xUTTgWdU-6" value="访问“隐私政策”界面" style="rounded=1;whiteSpace=wrap;html=1;" vertex="1" parent="1">
          <mxGeometry x="130" y="545" width="110" height="40" as="geometry" />
        </mxCell>
        <mxCell id="sKxLPVqMPOY-xUTTgWdU-9" value="" style="endArrow=classic;html=1;rounded=0;exitX=0.169;exitY=0.707;exitDx=0;exitDy=0;exitPerimeter=0;entryX=0.361;entryY=0.042;entryDx=0;entryDy=0;entryPerimeter=0;" edge="1" parent="1" source="sKxLPVqMPOY-xUTTgWdU-1" target="sKxLPVqMPOY-xUTTgWdU-6">
          <mxGeometry width="50" height="50" relative="1" as="geometry">
            <mxPoint x="290" y="440" as="sourcePoint" />
            <mxPoint x="170" y="540" as="targetPoint" />
          </mxGeometry>
        </mxCell>
        <mxCell id="sKxLPVqMPOY-xUTTgWdU-10" value="" style="endArrow=classic;html=1;rounded=0;entryX=0.198;entryY=0.687;entryDx=0;entryDy=0;entryPerimeter=0;" edge="1" parent="1" target="sKxLPVqMPOY-xUTTgWdU-1">
          <mxGeometry width="50" height="50" relative="1" as="geometry">
            <mxPoint x="190" y="540" as="sourcePoint" />
            <mxPoint x="340" y="390" as="targetPoint" />
          </mxGeometry>
        </mxCell>
        <mxCell id="sKxLPVqMPOY-xUTTgWdU-11" value="点击“我已知晓”按钮" style="text;html=1;align=center;verticalAlign=middle;whiteSpace=wrap;rounded=0;" vertex="1" parent="1">
          <mxGeometry x="190" y="490" width="60" height="30" as="geometry" />
        </mxCell>
        <mxCell id="sKxLPVqMPOY-xUTTgWdU-12" value="在底部功能栏点击“隐私政策”界面" style="text;html=1;align=center;verticalAlign=middle;whiteSpace=wrap;rounded=0;" vertex="1" parent="1">
          <mxGeometry x="65" y="490" width="100" height="30" as="geometry" />
        </mxCell>
        <mxCell id="sKxLPVqMPOY-xUTTgWdU-13" value="访问“免责声明”界面" style="rounded=1;whiteSpace=wrap;html=1;" vertex="1" parent="1">
          <mxGeometry x="260" y="300" width="110" height="40" as="geometry" />
        </mxCell>
        <mxCell id="sKxLPVqMPOY-xUTTgWdU-14" value="" style="endArrow=classic;html=1;rounded=0;exitX=0.397;exitY=0.3;exitDx=0;exitDy=0;exitPerimeter=0;entryX=0.379;entryY=1.1;entryDx=0;entryDy=0;entryPerimeter=0;" edge="1" parent="1">
          <mxGeometry width="50" height="50" relative="1" as="geometry">
            <mxPoint x="310.18" y="416" as="sourcePoint" />
            <mxPoint x="310.00000000000006" y="340" as="targetPoint" />
          </mxGeometry>
        </mxCell>
        <mxCell id="sKxLPVqMPOY-xUTTgWdU-15" value="" style="endArrow=classic;html=1;rounded=0;exitX=0.567;exitY=1.033;exitDx=0;exitDy=0;exitPerimeter=0;entryX=0.426;entryY=0.3;entryDx=0;entryDy=0;entryPerimeter=0;" edge="1" parent="1">
          <mxGeometry width="50" height="50" relative="1" as="geometry">
            <mxPoint x="325" y="339.99999999999994" as="sourcePoint" />
            <mxPoint x="325.09000000000003" y="418.68" as="targetPoint" />
          </mxGeometry>
        </mxCell>
        <mxCell id="sKxLPVqMPOY-xUTTgWdU-16" value="在底部功能栏点击“免责声明”界面" style="text;html=1;align=center;verticalAlign=middle;whiteSpace=wrap;rounded=0;" vertex="1" parent="1">
          <mxGeometry x="210" y="360" width="100" height="30" as="geometry" />
        </mxCell>
        <mxCell id="sKxLPVqMPOY-xUTTgWdU-17" value="点击“我已知晓”按钮" style="text;html=1;align=center;verticalAlign=middle;whiteSpace=wrap;rounded=0;" vertex="1" parent="1">
          <mxGeometry x="330" y="360" width="60" height="30" as="geometry" />
        </mxCell>
        <mxCell id="sKxLPVqMPOY-xUTTgWdU-18" value="访问“行为准则”界面" style="rounded=1;whiteSpace=wrap;html=1;" vertex="1" parent="1">
          <mxGeometry x="375" y="545" width="110" height="40" as="geometry" />
        </mxCell>
        <mxCell id="sKxLPVqMPOY-xUTTgWdU-19" value="" style="endArrow=classic;html=1;rounded=0;exitX=0.169;exitY=0.707;exitDx=0;exitDy=0;exitPerimeter=0;entryX=0.361;entryY=0.042;entryDx=0;entryDy=0;entryPerimeter=0;" edge="1" parent="1" target="sKxLPVqMPOY-xUTTgWdU-18">
          <mxGeometry width="50" height="50" relative="1" as="geometry">
            <mxPoint x="415" y="461" as="sourcePoint" />
            <mxPoint x="415" y="540" as="targetPoint" />
          </mxGeometry>
        </mxCell>
        <mxCell id="sKxLPVqMPOY-xUTTgWdU-20" value="" style="endArrow=classic;html=1;rounded=0;entryX=0.198;entryY=0.687;entryDx=0;entryDy=0;entryPerimeter=0;" edge="1" parent="1">
          <mxGeometry width="50" height="50" relative="1" as="geometry">
            <mxPoint x="435" y="540" as="sourcePoint" />
            <mxPoint x="436" y="459" as="targetPoint" />
          </mxGeometry>
        </mxCell>
        <mxCell id="sKxLPVqMPOY-xUTTgWdU-21" value="点击“我已知晓”按钮" style="text;html=1;align=center;verticalAlign=middle;whiteSpace=wrap;rounded=0;" vertex="1" parent="1">
          <mxGeometry x="435" y="490" width="60" height="30" as="geometry" />
        </mxCell>
        <mxCell id="sKxLPVqMPOY-xUTTgWdU-22" value="在底部功能栏点击“行为准则”界面" style="text;html=1;align=center;verticalAlign=middle;whiteSpace=wrap;rounded=0;" vertex="1" parent="1">
          <mxGeometry x="310" y="490" width="100" height="30" as="geometry" />
        </mxCell>
        <mxCell id="sKxLPVqMPOY-xUTTgWdU-27" value="访问“联系我们”界面" style="rounded=1;whiteSpace=wrap;html=1;" vertex="1" parent="1">
          <mxGeometry x="500" y="300" width="110" height="40" as="geometry" />
        </mxCell>
        <mxCell id="sKxLPVqMPOY-xUTTgWdU-28" value="" style="endArrow=classic;html=1;rounded=0;exitX=0.397;exitY=0.3;exitDx=0;exitDy=0;exitPerimeter=0;entryX=0.379;entryY=1.1;entryDx=0;entryDy=0;entryPerimeter=0;" edge="1" parent="1">
          <mxGeometry width="50" height="50" relative="1" as="geometry">
            <mxPoint x="550.1800000000001" y="416" as="sourcePoint" />
            <mxPoint x="550" y="340" as="targetPoint" />
          </mxGeometry>
        </mxCell>
        <mxCell id="sKxLPVqMPOY-xUTTgWdU-29" value="" style="endArrow=classic;html=1;rounded=0;exitX=0.567;exitY=1.033;exitDx=0;exitDy=0;exitPerimeter=0;entryX=0.426;entryY=0.3;entryDx=0;entryDy=0;entryPerimeter=0;" edge="1" parent="1">
          <mxGeometry width="50" height="50" relative="1" as="geometry">
            <mxPoint x="565" y="339.99999999999994" as="sourcePoint" />
            <mxPoint x="565.09" y="418.68" as="targetPoint" />
          </mxGeometry>
        </mxCell>
        <mxCell id="sKxLPVqMPOY-xUTTgWdU-30" value="在底部功能栏点击“联系我们”界面" style="text;html=1;align=center;verticalAlign=middle;whiteSpace=wrap;rounded=0;" vertex="1" parent="1">
          <mxGeometry x="450" y="360" width="100" height="30" as="geometry" />
        </mxCell>
        <mxCell id="sKxLPVqMPOY-xUTTgWdU-31" value="点击页面周围的空白地方" style="text;html=1;align=center;verticalAlign=middle;whiteSpace=wrap;rounded=0;" vertex="1" parent="1">
          <mxGeometry x="570" y="360" width="80" height="30" as="geometry" />
        </mxCell>
        <mxCell id="sKxLPVqMPOY-xUTTgWdU-32" value="访问“意见反馈”界面" style="rounded=1;whiteSpace=wrap;html=1;" vertex="1" parent="1">
          <mxGeometry x="595" y="545" width="110" height="40" as="geometry" />
        </mxCell>
        <mxCell id="sKxLPVqMPOY-xUTTgWdU-33" value="" style="endArrow=classic;html=1;rounded=0;exitX=0.169;exitY=0.707;exitDx=0;exitDy=0;exitPerimeter=0;entryX=0.361;entryY=0.042;entryDx=0;entryDy=0;entryPerimeter=0;" edge="1" parent="1" target="sKxLPVqMPOY-xUTTgWdU-32">
          <mxGeometry width="50" height="50" relative="1" as="geometry">
            <mxPoint x="635" y="461" as="sourcePoint" />
            <mxPoint x="635" y="540" as="targetPoint" />
          </mxGeometry>
        </mxCell>
        <mxCell id="sKxLPVqMPOY-xUTTgWdU-34" value="" style="endArrow=classic;html=1;rounded=0;entryX=0.198;entryY=0.687;entryDx=0;entryDy=0;entryPerimeter=0;" edge="1" parent="1">
          <mxGeometry width="50" height="50" relative="1" as="geometry">
            <mxPoint x="655" y="540" as="sourcePoint" />
            <mxPoint x="656" y="459" as="targetPoint" />
          </mxGeometry>
        </mxCell>
        <mxCell id="sKxLPVqMPOY-xUTTgWdU-35" value="取消反馈或提交反馈" style="text;html=1;align=center;verticalAlign=middle;whiteSpace=wrap;rounded=0;" vertex="1" parent="1">
          <mxGeometry x="660" y="490" width="65" height="30" as="geometry" />
        </mxCell>
        <mxCell id="sKxLPVqMPOY-xUTTgWdU-36" value="在底部功能栏点击“意见反馈”界面" style="text;html=1;align=center;verticalAlign=middle;whiteSpace=wrap;rounded=0;" vertex="1" parent="1">
          <mxGeometry x="530" y="490" width="100" height="30" as="geometry" />
        </mxCell>
      </root>
    </mxGraphModel>
  </diagram>
</mxfile>
